# xmcd CD database file
#
# Track frame offsets:
#	182
#	10775
#	26650
#	39370
#	55667
#	70725
#	87877
#	102350
#	120482
#	135767
#	152587
#	163262
#
# Disc length: 2389 seconds
#
# Revision: 0
# Processed by: cddbd v1.5.1PL2 Copyright (c) Steve Scherf et al.
# Submitted via: CDex 1.51
#
DISCID=8709530c
DTITLE=Sarah Jory - Dallas City Lights
DYEAR=1989
DGENRE=Country
TTITLE0=Remington Ride
TTITLE1=Mamas Wedding Band
TTITLE2=Jealous Heart
TTITLE3=Steel Line
TTITLE4=Beyond The Point Of No Return
TTITLE5=I Just Called To Say I Love You
TTITLE6=City Lights
TTITLE7=Touch My Heart
TTITLE8=The Preacher
TTITLE9=Farewell Party
TTITLE10=Flint Hill Special
TTITLE11=Once Upon A Time In The West
EXTD=YEAR: 1989
EXTT0=
EXTT1=
EXTT2=
EXTT3=
EXTT4=
EXTT5=
EXTT6=
EXTT7=
EXTT8=
EXTT9=
EXTT10=
EXTT11=
PLAYORDER=
